<?xml version="1.0" encoding="UTF-8"?>
<svg xmlns="http://www.w3.org/2000/svg"
     xmlns:xlink="http://www.w3.org/1999/xlink"
     xmlns:gadfly="http://www.gadflyjl.org/ns"
     version="1.2"
     width="127mm" height="127mm" viewBox="0 0 127 127"
     stroke="none"
     fill="#000000"
     stroke-width="0.3"
     font-size="3.88"
>
<g stroke="#000000" stroke-opacity="0.000" fill="#222831" id="img-12a5f85d-1">
  <rect x="0" y="0" width="127" height="127"/>
</g>
<g class="plotroot xscalable yscalable" id="img-12a5f85d-2">
  <g font-size="3.88" font-family="'PT Sans','Helvetica Neue','Helvetica',sans-serif" fill="#A1A1A1" stroke="#000000" stroke-opacity="0.000" id="img-12a5f85d-3">
    <text x="63.79" y="115.39" text-anchor="middle" dy="0.6em">x</text>
  </g>
  <g class="guide xlabels" font-size="2.82" font-family="'PT Sans Caption','Helvetica Neue','Helvetica',sans-serif" fill="#A1A1A1" id="img-12a5f85d-4">
    <text x="17.59" y="108.72" text-anchor="middle" dy="0.6em">-2</text>
    <text x="40.69" y="108.72" text-anchor="middle" dy="0.6em">-1</text>
    <text x="63.79" y="108.72" text-anchor="middle" dy="0.6em">0</text>
    <text x="86.89" y="108.72" text-anchor="middle" dy="0.6em">1</text>
    <text x="109.99" y="108.72" text-anchor="middle" dy="0.6em">2</text>
  </g>
  <g class="guide colorkey" id="img-12a5f85d-5">
    <g font-size="2.82" font-family="'PT Sans','Helvetica Neue','Helvetica',sans-serif" fill="#A1A1A1" id="img-12a5f85d-6">
      <text x="116.3" y="53.12" dy="0.35em">1.0</text>
      <text x="116.3" y="73.6" dy="0.35em">-0.5</text>
      <text x="116.3" y="80.43" dy="0.35em">-1.0</text>
      <text x="116.3" y="59.95" dy="0.35em">0.5</text>
      <text x="116.3" y="66.78" dy="0.35em">0.0</text>
    </g>
    <g shape-rendering="crispEdges" stroke="#000000" stroke-opacity="0.000" id="img-12a5f85d-7">
      <rect x="113.99" y="79.75" width="1.31" height="0.68" fill="#005D7F"/>
      <rect x="113.99" y="79.07" width="1.31" height="0.68" fill="#27607E"/>
      <rect x="113.99" y="78.38" width="1.31" height="0.68" fill="#3A647C"/>
      <rect x="113.99" y="77.7" width="1.31" height="0.68" fill="#49677B"/>
      <rect x="113.99" y="77.02" width="1.31" height="0.68" fill="#566B7A"/>
      <rect x="113.99" y="76.33" width="1.31" height="0.68" fill="#626E78"/>
      <rect x="113.99" y="75.65" width="1.31" height="0.68" fill="#6D7277"/>
      <rect x="113.99" y="74.97" width="1.31" height="0.68" fill="#787575"/>
      <rect x="113.99" y="74.29" width="1.31" height="0.68" fill="#827973"/>
      <rect x="113.99" y="73.6" width="1.31" height="0.68" fill="#8B7C72"/>
      <rect x="113.99" y="72.92" width="1.31" height="0.68" fill="#958070"/>
      <rect x="113.99" y="72.24" width="1.31" height="0.68" fill="#9F836E"/>
      <rect x="113.99" y="71.55" width="1.31" height="0.68" fill="#A8876D"/>
      <rect x="113.99" y="70.87" width="1.31" height="0.68" fill="#B18B6B"/>
      <rect x="113.99" y="70.19" width="1.31" height="0.68" fill="#BA8E69"/>
      <rect x="113.99" y="69.51" width="1.31" height="0.68" fill="#C39267"/>
      <rect x="113.99" y="68.82" width="1.31" height="0.68" fill="#CC9564"/>
      <rect x="113.99" y="68.14" width="1.31" height="0.68" fill="#D69962"/>
      <rect x="113.99" y="67.46" width="1.31" height="0.68" fill="#DF9D60"/>
      <rect x="113.99" y="66.78" width="1.31" height="0.68" fill="#E8A05D"/>
      <rect x="113.99" y="66.09" width="1.31" height="0.68" fill="#EDA05C"/>
      <rect x="113.99" y="65.41" width="1.31" height="0.68" fill="#EE9C5D"/>
      <rect x="113.99" y="64.73" width="1.31" height="0.68" fill="#EF985E"/>
      <rect x="113.99" y="64.04" width="1.31" height="0.68" fill="#F0945E"/>
      <rect x="113.99" y="63.36" width="1.31" height="0.68" fill="#F1905F"/>
      <rect x="113.99" y="62.68" width="1.31" height="0.68" fill="#F28C5F"/>
      <rect x="113.99" y="62" width="1.31" height="0.68" fill="#F38860"/>
      <rect x="113.99" y="61.31" width="1.31" height="0.68" fill="#F48460"/>
      <rect x="113.99" y="60.63" width="1.31" height="0.68" fill="#F57F61"/>
      <rect x="113.99" y="59.95" width="1.31" height="0.68" fill="#F67B61"/>
      <rect x="113.99" y="59.26" width="1.31" height="0.68" fill="#F77662"/>
      <rect x="113.99" y="58.58" width="1.31" height="0.68" fill="#F87262"/>
      <rect x="113.99" y="57.9" width="1.31" height="0.68" fill="#F96D62"/>
      <rect x="113.99" y="57.22" width="1.31" height="0.68" fill="#FA6863"/>
      <rect x="113.99" y="56.53" width="1.31" height="0.68" fill="#FB6263"/>
      <rect x="113.99" y="55.85" width="1.31" height="0.68" fill="#FB5D64"/>
      <rect x="113.99" y="55.17" width="1.31" height="0.68" fill="#FC5764"/>
      <rect x="113.99" y="54.48" width="1.31" height="0.68" fill="#FD5164"/>
      <rect x="113.99" y="53.8" width="1.31" height="0.68" fill="#FD4A65"/>
      <rect x="113.99" y="53.12" width="1.31" height="0.68" fill="#FE4365"/>
      <g stroke="#FFFFFF" stroke-width="0.2" id="img-12a5f85d-8">
        <path fill="none" d="M113.99,53.12 L 115.3 53.12"/>
        <path fill="none" d="M113.99,73.6 L 115.3 73.6"/>
        <path fill="none" d="M113.99,80.43 L 115.3 80.43"/>
        <path fill="none" d="M113.99,59.95 L 115.3 59.95"/>
        <path fill="none" d="M113.99,66.78 L 115.3 66.78"/>
      </g>
    </g>
    <g fill="#A1A1A1" font-size="3.88" font-family="'PT Sans','Helvetica Neue','Helvetica',sans-serif" stroke="#000000" stroke-opacity="0.000" id="img-12a5f85d-9">
      <text x="113.99" y="49.12">Color</text>
    </g>
  </g>
<g clip-path="url(#img-12a5f85d-10)">
  <g id="img-12a5f85d-11">
    <g pointer-events="visible" opacity="1" fill="#222831" stroke="#000000" stroke-opacity="0.000" class="guide background" id="img-12a5f85d-12">
      <rect x="15.59" y="10.61" width="96.39" height="97.1"/>
    </g>
    <g class="guide ygridlines xfixed" stroke-dasharray="0.5,0.5" stroke-width="0.2" stroke="#575757" id="img-12a5f85d-13">
      <path fill="none" d="M15.59,105.72 L 111.99 105.72"/>
      <path fill="none" d="M15.59,82.44 L 111.99 82.44"/>
      <path fill="none" d="M15.59,59.16 L 111.99 59.16"/>
      <path fill="none" d="M15.59,35.89 L 111.99 35.89"/>
      <path fill="none" d="M15.59,12.61 L 111.99 12.61"/>
    </g>
    <g class="guide xgridlines yfixed" stroke-dasharray="0.5,0.5" stroke-width="0.2" stroke="#575757" id="img-12a5f85d-14">
      <path fill="none" d="M17.59,10.61 L 17.59 107.72"/>
      <path fill="none" d="M40.69,10.61 L 40.69 107.72"/>
      <path fill="none" d="M63.79,10.61 L 63.79 107.72"/>
      <path fill="none" d="M86.89,10.61 L 86.89 107.72"/>
      <path fill="none" d="M109.99,10.61 L 109.99 107.72"/>
    </g>
    <g class="plotpanel" id="img-12a5f85d-15">
      <g stroke-width="0.3" fill="#000000" fill-opacity="0.000" class="geometry color_" stroke-dasharray="none" stroke="#ECA25C" id="img-12a5f85d-16">
        <path fill="none" d="M38.24,81 L 44.5 74.36 45.74 73.04 47.61 71.06 48.01 70.63 49.8 68.74 50.13 68.38 50.3 68.2 51.91 66.5 52.03 66.37 52.19 66.2 52.57 65.8 52.71 65.64 52.96 65.39 53.18 65.15 53.19 65.14 53.38 64.93 53.67 64.63 53.69 64.61 54.23 64.03 54.46 63.79 54.69 63.54 55.14 63.07 55.16 63.05 55.19 63.01 55.36 62.83 55.72 62.45 55.79 62.38 56.56 61.56 56.89 61.21 57.23 60.85 57.51 60.55 58.14 59.88 58.6 59.4 58.69 59.3 59.04 58.93 59.12 58.84 59.28 58.68 60.4 57.49 61.06 56.78 61.1 56.74 61.47 56.35 61.52 56.29 61.72 56.08 61.82 55.98 62.28 55.49 62.34 55.43 62.57 55.18 62.84 54.89 62.87 54.86 63.16 54.55 63.18 54.54 63.19 54.52 63.34 54.36 63.52 54.18 63.61 54.08 63.76 53.92 64.2 53.45 64.81 52.81 64.87 52.75 64.93 52.68 65.16 52.43 65.22 52.36 65.47 52.11 66.43 51.09 66.82 50.67 67.07 50.41 67.09 50.38 67.1 50.37 67.11 50.36 67.18 50.28 67.22 50.25 68.03 49.39 68.12 49.29 68.48 48.91 68.96 48.4 69.76 47.55 69.8 47.51 70.32 46.96 70.43 46.84 70.98 46.26 71.07 46.16 71.94 45.24 72.14 45.03 72.21 44.95 72.77 44.36 74.13 42.92 74.39 42.63 74.62 42.4 75.49 41.47 77.14 39.72 80.03 36.65 80.37 36.3 80.87 35.76 81.91 34.66 83.67 32.79 83.79 32.66 84.63 31.77 85.04 31.34 90.59 25.45"/>
      </g>
      <g class="geometry" id="img-12a5f85d-17">
        <g stroke-width="0.3" id="img-12a5f85d-18">
          <g class="color_" stroke="#7F000D" fill="#FE4365" id="img-12a5f85d-19">
            <use xlink:href="#img-12a5f85d-20" x="62.84" y="57.73"/>
          </g>
          <g class="color_" stroke="#7F000D" fill="#FE4365" id="img-12a5f85d-21">
            <use xlink:href="#img-12a5f85d-22" x="71.07" y="58.2"/>
          </g>
          <g class="color_" stroke="#7F000D" fill="#FE4365" id="img-12a5f85d-23">
            <use xlink:href="#img-12a5f85d-24" x="68.03" y="67.53"/>
          </g>
          <g class="color_" stroke="#7F000D" fill="#FE4365" id="img-12a5f85d-25">
            <use xlink:href="#img-12a5f85d-26" x="63.18" y="58.91"/>
          </g>
          <g class="color_" stroke="#000B28" fill="#005D7F" id="img-12a5f85d-27">
            <use xlink:href="#img-12a5f85d-28" x="54.23" y="53.84"/>
          </g>
          <g class="color_" stroke="#7F000D" fill="#FE4365" id="img-12a5f85d-29">
            <use xlink:href="#img-12a5f85d-30" x="84.63" y="63.85"/>
          </g>
          <g class="color_" stroke="#000B28" fill="#005D7F" id="img-12a5f85d-31">
            <use xlink:href="#img-12a5f85d-32" x="63.61" y="33.79"/>
          </g>
          <g class="color_" stroke="#000B28" fill="#005D7F" id="img-12a5f85d-33">
            <use xlink:href="#img-12a5f85d-34" x="47.61" y="65.86"/>
          </g>
          <g class="color_" stroke="#7F000D" fill="#FE4365" id="img-12a5f85d-35">
            <use xlink:href="#img-12a5f85d-36" x="74.62" y="55.45"/>
          </g>
          <g class="color_" stroke="#000B28" fill="#005D7F" id="img-12a5f85d-37">
            <use xlink:href="#img-12a5f85d-38" x="52.19" y="54.11"/>
          </g>
          <g class="color_" stroke="#000B28" fill="#005D7F" id="img-12a5f85d-39">
            <use xlink:href="#img-12a5f85d-40" x="62.34" y="50.68"/>
          </g>
          <g class="color_" stroke="#7F000D" fill="#FE4365" id="img-12a5f85d-41">
            <use xlink:href="#img-12a5f85d-42" x="61.1" y="61.33"/>
          </g>
          <g class="color_" stroke="#000B28" fill="#005D7F" id="img-12a5f85d-43">
            <use xlink:href="#img-12a5f85d-44" x="62.28" y="34.68"/>
          </g>
          <g class="color_" stroke="#7F000D" fill="#FE4365" id="img-12a5f85d-45">
            <use xlink:href="#img-12a5f85d-46" x="69.8" y="58.27"/>
          </g>
          <g class="color_" stroke="#7F000D" fill="#FE4365" id="img-12a5f85d-47">
            <use xlink:href="#img-12a5f85d-48" x="54.69" y="64.96"/>
          </g>
          <g class="color_" stroke="#7F000D" fill="#FE4365" id="img-12a5f85d-49">
            <use xlink:href="#img-12a5f85d-50" x="67.18" y="66.26"/>
          </g>
          <g class="color_" stroke="#7F000D" fill="#FE4365" id="img-12a5f85d-51">
            <use xlink:href="#img-12a5f85d-52" x="83.79" y="53.24"/>
          </g>
          <g class="color_" stroke="#7F000D" fill="#FE4365" id="img-12a5f85d-53">
            <use xlink:href="#img-12a5f85d-54" x="72.77" y="61.12"/>
          </g>
          <g class="color_" stroke="#000B28" fill="#005D7F" id="img-12a5f85d-55">
            <use xlink:href="#img-12a5f85d-56" x="55.79" y="52.57"/>
          </g>
          <g class="color_" stroke="#7F000D" fill="#FE4365" id="img-12a5f85d-57">
            <use xlink:href="#img-12a5f85d-58" x="67.11" y="78.21"/>
          </g>
          <g class="color_" stroke="#7F000D" fill="#FE4365" id="img-12a5f85d-59">
            <use xlink:href="#img-12a5f85d-60" x="58.6" y="63.98"/>
          </g>
          <g class="color_" stroke="#7F000D" fill="#FE4365" id="img-12a5f85d-61">
            <use xlink:href="#img-12a5f85d-62" x="61.47" y="60.28"/>
          </g>
          <g class="color_" stroke="#000B28" fill="#005D7F" id="img-12a5f85d-63">
            <use xlink:href="#img-12a5f85d-64" x="48.01" y="47.43"/>
          </g>
          <g class="color_" stroke="#000B28" fill="#005D7F" id="img-12a5f85d-65">
            <use xlink:href="#img-12a5f85d-66" x="68.12" y="49.21"/>
          </g>
          <g class="color_" stroke="#7F000D" fill="#FE4365" id="img-12a5f85d-67">
            <use xlink:href="#img-12a5f85d-68" x="67.22" y="85.55"/>
          </g>
          <g class="color_" stroke="#7F000D" fill="#FE4365" id="img-12a5f85d-69">
            <use xlink:href="#img-12a5f85d-70" x="71.94" y="50.77"/>
          </g>
          <g class="color_" stroke="#000B28" fill="#005D7F" id="img-12a5f85d-71">
            <use xlink:href="#img-12a5f85d-72" x="59.12" y="58.68"/>
          </g>
          <g class="color_" stroke="#7F000D" fill="#FE4365" id="img-12a5f85d-73">
            <use xlink:href="#img-12a5f85d-74" x="63.19" y="58.79"/>
          </g>
          <g class="color_" stroke="#7F000D" fill="#FE4365" id="img-12a5f85d-75">
            <use xlink:href="#img-12a5f85d-76" x="60.4" y="58.3"/>
          </g>
          <g class="color_" stroke="#7F000D" fill="#FE4365" id="img-12a5f85d-77">
            <use xlink:href="#img-12a5f85d-78" x="64.81" y="62.01"/>
          </g>
          <g class="color_" stroke="#7F000D" fill="#FE4365" id="img-12a5f85d-79">
            <use xlink:href="#img-12a5f85d-80" x="67.1" y="61.54"/>
          </g>
          <g class="color_" stroke="#000B28" fill="#005D7F" id="img-12a5f85d-81">
            <use xlink:href="#img-12a5f85d-82" x="56.56" y="61.41"/>
          </g>
          <g class="color_" stroke="#7F000D" fill="#FE4365" id="img-12a5f85d-83">
            <use xlink:href="#img-12a5f85d-84" x="51.91" y="74.45"/>
          </g>
          <g class="color_" stroke="#7F000D" fill="#FE4365" id="img-12a5f85d-85">
            <use xlink:href="#img-12a5f85d-86" x="70.98" y="61.61"/>
          </g>
          <g class="color_" stroke="#000B28" fill="#005D7F" id="img-12a5f85d-87">
            <use xlink:href="#img-12a5f85d-88" x="67.09" y="34.24"/>
          </g>
          <g class="color_" stroke="#7F000D" fill="#FE4365" id="img-12a5f85d-89">
            <use xlink:href="#img-12a5f85d-90" x="55.36" y="66.67"/>
          </g>
          <g class="color_" stroke="#000B28" fill="#005D7F" id="img-12a5f85d-91">
            <use xlink:href="#img-12a5f85d-92" x="55.19" y="61.35"/>
          </g>
          <g class="color_" stroke="#000B28" fill="#005D7F" id="img-12a5f85d-93">
            <use xlink:href="#img-12a5f85d-94" x="64.87" y="51.85"/>
          </g>
          <g class="color_" stroke="#7F000D" fill="#FE4365" id="img-12a5f85d-95">
            <use xlink:href="#img-12a5f85d-96" x="63.34" y="59.54"/>
          </g>
          <g class="color_" stroke="#7F000D" fill="#FE4365" id="img-12a5f85d-97">
            <use xlink:href="#img-12a5f85d-98" x="58.14" y="78.48"/>
          </g>
          <g class="color_" stroke="#7F000D" fill="#FE4365" id="img-12a5f85d-99">
            <use xlink:href="#img-12a5f85d-100" x="63.52" y="69.29"/>
          </g>
          <g class="color_" stroke="#7F000D" fill="#FE4365" id="img-12a5f85d-101">
            <use xlink:href="#img-12a5f85d-102" x="83.67" y="64.99"/>
          </g>
          <g class="color_" stroke="#7F000D" fill="#FE4365" id="img-12a5f85d-103">
            <use xlink:href="#img-12a5f85d-104" x="69.76" y="62.68"/>
          </g>
          <g class="color_" stroke="#000B28" fill="#005D7F" id="img-12a5f85d-105">
            <use xlink:href="#img-12a5f85d-106" x="49.8" y="36.13"/>
          </g>
          <g class="color_" stroke="#7F000D" fill="#FE4365" id="img-12a5f85d-107">
            <use xlink:href="#img-12a5f85d-108" x="90.59" y="53"/>
          </g>
          <g class="color_" stroke="#7F000D" fill="#FE4365" id="img-12a5f85d-109">
            <use xlink:href="#img-12a5f85d-110" x="66.43" y="63.28"/>
          </g>
          <g class="color_" stroke="#7F000D" fill="#FE4365" id="img-12a5f85d-111">
            <use xlink:href="#img-12a5f85d-112" x="59.28" y="71.6"/>
          </g>
          <g class="color_" stroke="#7F000D" fill="#FE4365" id="img-12a5f85d-113">
            <use xlink:href="#img-12a5f85d-114" x="61.72" y="79.09"/>
          </g>
          <g class="color_" stroke="#7F000D" fill="#FE4365" id="img-12a5f85d-115">
            <use xlink:href="#img-12a5f85d-116" x="70.43" y="62.37"/>
          </g>
          <g class="color_" stroke="#7F000D" fill="#FE4365" id="img-12a5f85d-117">
            <use xlink:href="#img-12a5f85d-118" x="80.37" y="62.27"/>
          </g>
          <g class="color_" stroke="#7F000D" fill="#FE4365" id="img-12a5f85d-119">
            <use xlink:href="#img-12a5f85d-120" x="80.03" y="46.38"/>
          </g>
          <g class="color_" stroke="#7F000D" fill="#FE4365" id="img-12a5f85d-121">
            <use xlink:href="#img-12a5f85d-122" x="64.93" y="56.63"/>
          </g>
          <g class="color_" stroke="#7F000D" fill="#FE4365" id="img-12a5f85d-123">
            <use xlink:href="#img-12a5f85d-124" x="62.87" y="56.95"/>
          </g>
          <g class="color_" stroke="#7F000D" fill="#FE4365" id="img-12a5f85d-125">
            <use xlink:href="#img-12a5f85d-126" x="63.16" y="56.91"/>
          </g>
          <g class="color_" stroke="#7F000D" fill="#FE4365" id="img-12a5f85d-127">
            <use xlink:href="#img-12a5f85d-128" x="68.96" y="59.18"/>
          </g>
          <g class="color_" stroke="#7F000D" fill="#FE4365" id="img-12a5f85d-129">
            <use xlink:href="#img-12a5f85d-130" x="63.76" y="59.16"/>
          </g>
          <g class="color_" stroke="#000B28" fill="#005D7F" id="img-12a5f85d-131">
            <use xlink:href="#img-12a5f85d-132" x="53.67" y="52.96"/>
          </g>
          <g class="color_" stroke="#7F000D" fill="#FE4365" id="img-12a5f85d-133">
            <use xlink:href="#img-12a5f85d-134" x="55.14" y="66.73"/>
          </g>
          <g class="color_" stroke="#7F000D" fill="#FE4365" id="img-12a5f85d-135">
            <use xlink:href="#img-12a5f85d-136" x="67.07" y="56.88"/>
          </g>
          <g class="color_" stroke="#7F000D" fill="#FE4365" id="img-12a5f85d-137">
            <use xlink:href="#img-12a5f85d-138" x="64.2" y="59.54"/>
          </g>
          <g class="color_" stroke="#7F000D" fill="#FE4365" id="img-12a5f85d-139">
            <use xlink:href="#img-12a5f85d-140" x="74.13" y="50.15"/>
          </g>
          <g class="color_" stroke="#000B28" fill="#005D7F" id="img-12a5f85d-141">
            <use xlink:href="#img-12a5f85d-142" x="52.71" y="63.35"/>
          </g>
          <g class="color_" stroke="#7F000D" fill="#FE4365" id="img-12a5f85d-143">
            <use xlink:href="#img-12a5f85d-144" x="85.04" y="60.24"/>
          </g>
          <g class="color_" stroke="#000B28" fill="#005D7F" id="img-12a5f85d-145">
            <use xlink:href="#img-12a5f85d-146" x="57.51" y="58.86"/>
          </g>
          <g class="color_" stroke="#000B28" fill="#005D7F" id="img-12a5f85d-147">
            <use xlink:href="#img-12a5f85d-148" x="61.52" y="52.22"/>
          </g>
          <g class="color_" stroke="#000B28" fill="#005D7F" id="img-12a5f85d-149">
            <use xlink:href="#img-12a5f85d-150" x="62.57" y="44.09"/>
          </g>
          <g class="color_" stroke="#7F000D" fill="#FE4365" id="img-12a5f85d-151">
            <use xlink:href="#img-12a5f85d-152" x="72.21" y="84.03"/>
          </g>
          <g class="color_" stroke="#000B28" fill="#005D7F" id="img-12a5f85d-153">
            <use xlink:href="#img-12a5f85d-154" x="52.03" y="52.86"/>
          </g>
          <g class="color_" stroke="#000B28" fill="#005D7F" id="img-12a5f85d-155">
            <use xlink:href="#img-12a5f85d-156" x="72.14" y="38.17"/>
          </g>
          <g class="color_" stroke="#000B28" fill="#005D7F" id="img-12a5f85d-157">
            <use xlink:href="#img-12a5f85d-158" x="55.16" y="54.3"/>
          </g>
          <g class="color_" stroke="#000B28" fill="#005D7F" id="img-12a5f85d-159">
            <use xlink:href="#img-12a5f85d-160" x="52.57" y="63.04"/>
          </g>
          <g class="color_" stroke="#7F000D" fill="#FE4365" id="img-12a5f85d-161">
            <use xlink:href="#img-12a5f85d-162" x="81.91" y="73.21"/>
          </g>
          <g class="color_" stroke="#7F000D" fill="#FE4365" id="img-12a5f85d-163">
            <use xlink:href="#img-12a5f85d-164" x="75.49" y="60.81"/>
          </g>
          <g class="color_" stroke="#7F000D" fill="#FE4365" id="img-12a5f85d-165">
            <use xlink:href="#img-12a5f85d-166" x="58.69" y="80.51"/>
          </g>
          <g class="color_" stroke="#000B28" fill="#005D7F" id="img-12a5f85d-167">
            <use xlink:href="#img-12a5f85d-168" x="53.69" y="50.11"/>
          </g>
          <g class="color_" stroke="#000B28" fill="#005D7F" id="img-12a5f85d-169">
            <use xlink:href="#img-12a5f85d-170" x="59.04" y="58.09"/>
          </g>
          <g class="color_" stroke="#000B28" fill="#005D7F" id="img-12a5f85d-171">
            <use xlink:href="#img-12a5f85d-172" x="45.74" y="58.82"/>
          </g>
          <g class="color_" stroke="#000B28" fill="#005D7F" id="img-12a5f85d-173">
            <use xlink:href="#img-12a5f85d-174" x="44.5" y="49.12"/>
          </g>
          <g class="color_" stroke="#7F000D" fill="#FE4365" id="img-12a5f85d-175">
            <use xlink:href="#img-12a5f85d-176" x="54.46" y="66.81"/>
          </g>
          <g class="color_" stroke="#7F000D" fill="#FE4365" id="img-12a5f85d-177">
            <use xlink:href="#img-12a5f85d-178" x="61.06" y="59.88"/>
          </g>
          <g class="color_" stroke="#7F000D" fill="#FE4365" id="img-12a5f85d-179">
            <use xlink:href="#img-12a5f85d-180" x="77.14" y="49.39"/>
          </g>
          <g class="color_" stroke="#000B28" fill="#005D7F" id="img-12a5f85d-181">
            <use xlink:href="#img-12a5f85d-182" x="55.72" y="56.63"/>
          </g>
          <g class="color_" stroke="#7F000D" fill="#FE4365" id="img-12a5f85d-183">
            <use xlink:href="#img-12a5f85d-184" x="70.32" y="50.98"/>
          </g>
          <g class="color_" stroke="#7F000D" fill="#FE4365" id="img-12a5f85d-185">
            <use xlink:href="#img-12a5f85d-186" x="65.47" y="60.92"/>
          </g>
          <g class="color_" stroke="#000B28" fill="#005D7F" id="img-12a5f85d-187">
            <use xlink:href="#img-12a5f85d-188" x="57.23" y="57.44"/>
          </g>
          <g class="color_" stroke="#7F000D" fill="#FE4365" id="img-12a5f85d-189">
            <use xlink:href="#img-12a5f85d-190" x="65.16" y="59.44"/>
          </g>
          <g class="color_" stroke="#000B28" fill="#005D7F" id="img-12a5f85d-191">
            <use xlink:href="#img-12a5f85d-192" x="38.24" y="65.8"/>
          </g>
          <g class="color_" stroke="#7F000D" fill="#FE4365" id="img-12a5f85d-193">
            <use xlink:href="#img-12a5f85d-194" x="52.96" y="68.61"/>
          </g>
          <g class="color_" stroke="#7F000D" fill="#FE4365" id="img-12a5f85d-195">
            <use xlink:href="#img-12a5f85d-196" x="65.22" y="85.63"/>
          </g>
          <g class="color_" stroke="#7F000D" fill="#FE4365" id="img-12a5f85d-197">
            <use xlink:href="#img-12a5f85d-198" x="56.89" y="66.99"/>
          </g>
          <g class="color_" stroke="#000B28" fill="#005D7F" id="img-12a5f85d-199">
            <use xlink:href="#img-12a5f85d-200" x="53.18" y="54.74"/>
          </g>
          <g class="color_" stroke="#000B28" fill="#005D7F" id="img-12a5f85d-201">
            <use xlink:href="#img-12a5f85d-202" x="53.19" y="34.9"/>
          </g>
          <g class="color_" stroke="#7F000D" fill="#FE4365" id="img-12a5f85d-203">
            <use xlink:href="#img-12a5f85d-204" x="68.48" y="58.98"/>
          </g>
          <g class="color_" stroke="#000B28" fill="#005D7F" id="img-12a5f85d-205">
            <use xlink:href="#img-12a5f85d-206" x="53.38" y="55.8"/>
          </g>
          <g class="color_" stroke="#7F000D" fill="#FE4365" id="img-12a5f85d-207">
            <use xlink:href="#img-12a5f85d-208" x="80.87" y="48.64"/>
          </g>
          <g class="color_" stroke="#7F000D" fill="#FE4365" id="img-12a5f85d-209">
            <use xlink:href="#img-12a5f85d-210" x="74.39" y="52.23"/>
          </g>
          <g class="color_" stroke="#000B28" fill="#005D7F" id="img-12a5f85d-211">
            <use xlink:href="#img-12a5f85d-212" x="61.82" y="54.56"/>
          </g>
          <g class="color_" stroke="#000B28" fill="#005D7F" id="img-12a5f85d-213">
            <use xlink:href="#img-12a5f85d-214" x="50.3" y="59.83"/>
          </g>
          <g class="color_" stroke="#7F000D" fill="#FE4365" id="img-12a5f85d-215">
            <use xlink:href="#img-12a5f85d-216" x="50.13" y="77.25"/>
          </g>
          <g class="color_" stroke="#7F000D" fill="#FE4365" id="img-12a5f85d-217">
            <use xlink:href="#img-12a5f85d-218" x="66.82" y="61.41"/>
          </g>
        </g>
      </g>
    </g>
  </g>
</g>
  <g class="guide ylabels" font-size="2.82" font-family="'PT Sans Caption','Helvetica Neue','Helvetica',sans-serif" fill="#A1A1A1" id="img-12a5f85d-219">
    <text x="14.59" y="105.72" text-anchor="end" dy="0.35em">-2</text>
    <text x="14.59" y="82.44" text-anchor="end" dy="0.35em">-1</text>
    <text x="14.59" y="59.16" text-anchor="end" dy="0.35em">0</text>
    <text x="14.59" y="35.89" text-anchor="end" dy="0.35em">1</text>
    <text x="14.59" y="12.61" text-anchor="end" dy="0.35em">2</text>
  </g>
  <g font-size="3.88" font-family="'PT Sans','Helvetica Neue','Helvetica',sans-serif" fill="#A1A1A1" stroke="#000000" stroke-opacity="0.000" id="img-12a5f85d-220">
    <text x="8.81" y="59.16" text-anchor="end" dy="0.35em">y</text>
  </g>
  <g font-size="3.88" font-family="'PT Sans','Helvetica Neue','Helvetica',sans-serif" fill="#A1A1A1" stroke="#000000" stroke-opacity="0.000" id="img-12a5f85d-221">
    <text x="63.79" y="5" text-anchor="middle" dy="0.6em">formula: x + -0.95 y + 0.22 = 0</text>
  </g>
</g>
<defs>
  <clipPath id="img-12a5f85d-10">
  <path d="M15.59,10.61 L 111.99 10.61 111.99 107.72 15.59 107.72" />
</clipPath>
  <g id="img-12a5f85d-20">
    <circle cx="0" cy="0" r="0.9"/>
  </g>
  <g id="img-12a5f85d-22">
    <circle cx="0" cy="0" r="0.9"/>
  </g>
  <g id="img-12a5f85d-24">
    <circle cx="0" cy="0" r="0.9"/>
  </g>
  <g id="img-12a5f85d-26">
    <circle cx="0" cy="0" r="0.9"/>
  </g>
  <g id="img-12a5f85d-28">
    <circle cx="0" cy="0" r="0.9"/>
  </g>
  <g id="img-12a5f85d-30">
    <circle cx="0" cy="0" r="0.9"/>
  </g>
  <g id="img-12a5f85d-32">
    <circle cx="0" cy="0" r="0.9"/>
  </g>
  <g id="img-12a5f85d-34">
    <circle cx="0" cy="0" r="0.9"/>
  </g>
  <g id="img-12a5f85d-36">
    <circle cx="0" cy="0" r="0.9"/>
  </g>
  <g id="img-12a5f85d-38">
    <circle cx="0" cy="0" r="0.9"/>
  </g>
  <g id="img-12a5f85d-40">
    <circle cx="0" cy="0" r="0.9"/>
  </g>
  <g id="img-12a5f85d-42">
    <circle cx="0" cy="0" r="0.9"/>
  </g>
  <g id="img-12a5f85d-44">
    <circle cx="0" cy="0" r="0.9"/>
  </g>
  <g id="img-12a5f85d-46">
    <circle cx="0" cy="0" r="0.9"/>
  </g>
  <g id="img-12a5f85d-48">
    <circle cx="0" cy="0" r="0.9"/>
  </g>
  <g id="img-12a5f85d-50">
    <circle cx="0" cy="0" r="0.9"/>
  </g>
  <g id="img-12a5f85d-52">
    <circle cx="0" cy="0" r="0.9"/>
  </g>
  <g id="img-12a5f85d-54">
    <circle cx="0" cy="0" r="0.9"/>
  </g>
  <g id="img-12a5f85d-56">
    <circle cx="0" cy="0" r="0.9"/>
  </g>
  <g id="img-12a5f85d-58">
    <circle cx="0" cy="0" r="0.9"/>
  </g>
  <g id="img-12a5f85d-60">
    <circle cx="0" cy="0" r="0.9"/>
  </g>
  <g id="img-12a5f85d-62">
    <circle cx="0" cy="0" r="0.9"/>
  </g>
  <g id="img-12a5f85d-64">
    <circle cx="0" cy="0" r="0.9"/>
  </g>
  <g id="img-12a5f85d-66">
    <circle cx="0" cy="0" r="0.9"/>
  </g>
  <g id="img-12a5f85d-68">
    <circle cx="0" cy="0" r="0.9"/>
  </g>
  <g id="img-12a5f85d-70">
    <circle cx="0" cy="0" r="0.9"/>
  </g>
  <g id="img-12a5f85d-72">
    <circle cx="0" cy="0" r="0.9"/>
  </g>
  <g id="img-12a5f85d-74">
    <circle cx="0" cy="0" r="0.9"/>
  </g>
  <g id="img-12a5f85d-76">
    <circle cx="0" cy="0" r="0.9"/>
  </g>
  <g id="img-12a5f85d-78">
    <circle cx="0" cy="0" r="0.9"/>
  </g>
  <g id="img-12a5f85d-80">
    <circle cx="0" cy="0" r="0.9"/>
  </g>
  <g id="img-12a5f85d-82">
    <circle cx="0" cy="0" r="0.9"/>
  </g>
  <g id="img-12a5f85d-84">
    <circle cx="0" cy="0" r="0.9"/>
  </g>
  <g id="img-12a5f85d-86">
    <circle cx="0" cy="0" r="0.9"/>
  </g>
  <g id="img-12a5f85d-88">
    <circle cx="0" cy="0" r="0.9"/>
  </g>
  <g id="img-12a5f85d-90">
    <circle cx="0" cy="0" r="0.9"/>
  </g>
  <g id="img-12a5f85d-92">
    <circle cx="0" cy="0" r="0.9"/>
  </g>
  <g id="img-12a5f85d-94">
    <circle cx="0" cy="0" r="0.9"/>
  </g>
  <g id="img-12a5f85d-96">
    <circle cx="0" cy="0" r="0.9"/>
  </g>
  <g id="img-12a5f85d-98">
    <circle cx="0" cy="0" r="0.9"/>
  </g>
  <g id="img-12a5f85d-100">
    <circle cx="0" cy="0" r="0.9"/>
  </g>
  <g id="img-12a5f85d-102">
    <circle cx="0" cy="0" r="0.9"/>
  </g>
  <g id="img-12a5f85d-104">
    <circle cx="0" cy="0" r="0.9"/>
  </g>
  <g id="img-12a5f85d-106">
    <circle cx="0" cy="0" r="0.9"/>
  </g>
  <g id="img-12a5f85d-108">
    <circle cx="0" cy="0" r="0.9"/>
  </g>
  <g id="img-12a5f85d-110">
    <circle cx="0" cy="0" r="0.9"/>
  </g>
  <g id="img-12a5f85d-112">
    <circle cx="0" cy="0" r="0.9"/>
  </g>
  <g id="img-12a5f85d-114">
    <circle cx="0" cy="0" r="0.9"/>
  </g>
  <g id="img-12a5f85d-116">
    <circle cx="0" cy="0" r="0.9"/>
  </g>
  <g id="img-12a5f85d-118">
    <circle cx="0" cy="0" r="0.9"/>
  </g>
  <g id="img-12a5f85d-120">
    <circle cx="0" cy="0" r="0.9"/>
  </g>
  <g id="img-12a5f85d-122">
    <circle cx="0" cy="0" r="0.9"/>
  </g>
  <g id="img-12a5f85d-124">
    <circle cx="0" cy="0" r="0.9"/>
  </g>
  <g id="img-12a5f85d-126">
    <circle cx="0" cy="0" r="0.9"/>
  </g>
  <g id="img-12a5f85d-128">
    <circle cx="0" cy="0" r="0.9"/>
  </g>
  <g id="img-12a5f85d-130">
    <circle cx="0" cy="0" r="0.9"/>
  </g>
  <g id="img-12a5f85d-132">
    <circle cx="0" cy="0" r="0.9"/>
  </g>
  <g id="img-12a5f85d-134">
    <circle cx="0" cy="0" r="0.9"/>
  </g>
  <g id="img-12a5f85d-136">
    <circle cx="0" cy="0" r="0.9"/>
  </g>
  <g id="img-12a5f85d-138">
    <circle cx="0" cy="0" r="0.9"/>
  </g>
  <g id="img-12a5f85d-140">
    <circle cx="0" cy="0" r="0.9"/>
  </g>
  <g id="img-12a5f85d-142">
    <circle cx="0" cy="0" r="0.9"/>
  </g>
  <g id="img-12a5f85d-144">
    <circle cx="0" cy="0" r="0.9"/>
  </g>
  <g id="img-12a5f85d-146">
    <circle cx="0" cy="0" r="0.9"/>
  </g>
  <g id="img-12a5f85d-148">
    <circle cx="0" cy="0" r="0.9"/>
  </g>
  <g id="img-12a5f85d-150">
    <circle cx="0" cy="0" r="0.9"/>
  </g>
  <g id="img-12a5f85d-152">
    <circle cx="0" cy="0" r="0.9"/>
  </g>
  <g id="img-12a5f85d-154">
    <circle cx="0" cy="0" r="0.9"/>
  </g>
  <g id="img-12a5f85d-156">
    <circle cx="0" cy="0" r="0.9"/>
  </g>
  <g id="img-12a5f85d-158">
    <circle cx="0" cy="0" r="0.9"/>
  </g>
  <g id="img-12a5f85d-160">
    <circle cx="0" cy="0" r="0.9"/>
  </g>
  <g id="img-12a5f85d-162">
    <circle cx="0" cy="0" r="0.9"/>
  </g>
  <g id="img-12a5f85d-164">
    <circle cx="0" cy="0" r="0.9"/>
  </g>
  <g id="img-12a5f85d-166">
    <circle cx="0" cy="0" r="0.9"/>
  </g>
  <g id="img-12a5f85d-168">
    <circle cx="0" cy="0" r="0.9"/>
  </g>
  <g id="img-12a5f85d-170">
    <circle cx="0" cy="0" r="0.9"/>
  </g>
  <g id="img-12a5f85d-172">
    <circle cx="0" cy="0" r="0.9"/>
  </g>
  <g id="img-12a5f85d-174">
    <circle cx="0" cy="0" r="0.9"/>
  </g>
  <g id="img-12a5f85d-176">
    <circle cx="0" cy="0" r="0.9"/>
  </g>
  <g id="img-12a5f85d-178">
    <circle cx="0" cy="0" r="0.9"/>
  </g>
  <g id="img-12a5f85d-180">
    <circle cx="0" cy="0" r="0.9"/>
  </g>
  <g id="img-12a5f85d-182">
    <circle cx="0" cy="0" r="0.9"/>
  </g>
  <g id="img-12a5f85d-184">
    <circle cx="0" cy="0" r="0.9"/>
  </g>
  <g id="img-12a5f85d-186">
    <circle cx="0" cy="0" r="0.9"/>
  </g>
  <g id="img-12a5f85d-188">
    <circle cx="0" cy="0" r="0.9"/>
  </g>
  <g id="img-12a5f85d-190">
    <circle cx="0" cy="0" r="0.9"/>
  </g>
  <g id="img-12a5f85d-192">
    <circle cx="0" cy="0" r="0.9"/>
  </g>
  <g id="img-12a5f85d-194">
    <circle cx="0" cy="0" r="0.9"/>
  </g>
  <g id="img-12a5f85d-196">
    <circle cx="0" cy="0" r="0.9"/>
  </g>
  <g id="img-12a5f85d-198">
    <circle cx="0" cy="0" r="0.9"/>
  </g>
  <g id="img-12a5f85d-200">
    <circle cx="0" cy="0" r="0.9"/>
  </g>
  <g id="img-12a5f85d-202">
    <circle cx="0" cy="0" r="0.9"/>
  </g>
  <g id="img-12a5f85d-204">
    <circle cx="0" cy="0" r="0.9"/>
  </g>
  <g id="img-12a5f85d-206">
    <circle cx="0" cy="0" r="0.9"/>
  </g>
  <g id="img-12a5f85d-208">
    <circle cx="0" cy="0" r="0.9"/>
  </g>
  <g id="img-12a5f85d-210">
    <circle cx="0" cy="0" r="0.9"/>
  </g>
  <g id="img-12a5f85d-212">
    <circle cx="0" cy="0" r="0.9"/>
  </g>
  <g id="img-12a5f85d-214">
    <circle cx="0" cy="0" r="0.9"/>
  </g>
  <g id="img-12a5f85d-216">
    <circle cx="0" cy="0" r="0.9"/>
  </g>
  <g id="img-12a5f85d-218">
    <circle cx="0" cy="0" r="0.9"/>
  </g>
</defs>
</svg>
