<?xml version="1.0" encoding="UTF-8"?>
<svg xmlns="http://www.w3.org/2000/svg"
     xmlns:xlink="http://www.w3.org/1999/xlink"
     xmlns:gadfly="http://www.gadflyjl.org/ns"
     version="1.2"
     width="127mm" height="127mm" viewBox="0 0 127 127"
     stroke="none"
     fill="#000000"
     stroke-width="0.3"
     font-size="3.88"
>
<g stroke="#000000" stroke-opacity="0.000" fill="#222831" id="img-63c239ff-1">
  <rect x="0" y="0" width="127" height="127"/>
</g>
<g class="plotroot xscalable yscalable" id="img-63c239ff-2">
  <g font-size="3.88" font-family="'PT Sans','Helvetica Neue','Helvetica',sans-serif" fill="#A1A1A1" stroke="#000000" stroke-opacity="0.000" id="img-63c239ff-3">
    <text x="63.79" y="115.39" text-anchor="middle" dy="0.6em">x</text>
  </g>
  <g class="guide xlabels" font-size="2.82" font-family="'PT Sans Caption','Helvetica Neue','Helvetica',sans-serif" fill="#A1A1A1" id="img-63c239ff-4">
    <text x="17.59" y="108.72" text-anchor="middle" dy="0.6em">-2</text>
    <text x="40.69" y="108.72" text-anchor="middle" dy="0.6em">-1</text>
    <text x="63.79" y="108.72" text-anchor="middle" dy="0.6em">0</text>
    <text x="86.89" y="108.72" text-anchor="middle" dy="0.6em">1</text>
    <text x="109.99" y="108.72" text-anchor="middle" dy="0.6em">2</text>
  </g>
  <g class="guide colorkey" id="img-63c239ff-5">
    <g font-size="2.82" font-family="'PT Sans','Helvetica Neue','Helvetica',sans-serif" fill="#A1A1A1" id="img-63c239ff-6">
      <text x="116.3" y="53.12" dy="0.35em">1.0</text>
      <text x="116.3" y="73.6" dy="0.35em">-0.5</text>
      <text x="116.3" y="80.43" dy="0.35em">-1.0</text>
      <text x="116.3" y="59.95" dy="0.35em">0.5</text>
      <text x="116.3" y="66.78" dy="0.35em">0.0</text>
    </g>
    <g shape-rendering="crispEdges" stroke="#000000" stroke-opacity="0.000" id="img-63c239ff-7">
      <rect x="113.99" y="79.75" width="1.31" height="0.68" fill="#005D7F"/>
      <rect x="113.99" y="79.07" width="1.31" height="0.68" fill="#27607E"/>
      <rect x="113.99" y="78.38" width="1.31" height="0.68" fill="#3A647C"/>
      <rect x="113.99" y="77.7" width="1.31" height="0.68" fill="#49677B"/>
      <rect x="113.99" y="77.02" width="1.31" height="0.68" fill="#566B7A"/>
      <rect x="113.99" y="76.33" width="1.31" height="0.68" fill="#626E78"/>
      <rect x="113.99" y="75.65" width="1.31" height="0.68" fill="#6D7277"/>
      <rect x="113.99" y="74.97" width="1.31" height="0.68" fill="#787575"/>
      <rect x="113.99" y="74.29" width="1.31" height="0.68" fill="#827973"/>
      <rect x="113.99" y="73.6" width="1.31" height="0.68" fill="#8B7C72"/>
      <rect x="113.99" y="72.92" width="1.31" height="0.68" fill="#958070"/>
      <rect x="113.99" y="72.24" width="1.31" height="0.68" fill="#9F836E"/>
      <rect x="113.99" y="71.55" width="1.31" height="0.68" fill="#A8876D"/>
      <rect x="113.99" y="70.87" width="1.31" height="0.68" fill="#B18B6B"/>
      <rect x="113.99" y="70.19" width="1.31" height="0.68" fill="#BA8E69"/>
      <rect x="113.99" y="69.51" width="1.31" height="0.68" fill="#C39267"/>
      <rect x="113.99" y="68.82" width="1.31" height="0.68" fill="#CC9564"/>
      <rect x="113.99" y="68.14" width="1.31" height="0.68" fill="#D69962"/>
      <rect x="113.99" y="67.46" width="1.31" height="0.68" fill="#DF9D60"/>
      <rect x="113.99" y="66.78" width="1.31" height="0.68" fill="#E8A05D"/>
      <rect x="113.99" y="66.09" width="1.31" height="0.68" fill="#EDA05C"/>
      <rect x="113.99" y="65.41" width="1.31" height="0.68" fill="#EE9C5D"/>
      <rect x="113.99" y="64.73" width="1.31" height="0.68" fill="#EF985E"/>
      <rect x="113.99" y="64.04" width="1.31" height="0.68" fill="#F0945E"/>
      <rect x="113.99" y="63.36" width="1.31" height="0.68" fill="#F1905F"/>
      <rect x="113.99" y="62.68" width="1.31" height="0.68" fill="#F28C5F"/>
      <rect x="113.99" y="62" width="1.31" height="0.68" fill="#F38860"/>
      <rect x="113.99" y="61.31" width="1.31" height="0.68" fill="#F48460"/>
      <rect x="113.99" y="60.63" width="1.31" height="0.68" fill="#F57F61"/>
      <rect x="113.99" y="59.95" width="1.31" height="0.68" fill="#F67B61"/>
      <rect x="113.99" y="59.26" width="1.31" height="0.68" fill="#F77662"/>
      <rect x="113.99" y="58.58" width="1.31" height="0.68" fill="#F87262"/>
      <rect x="113.99" y="57.9" width="1.31" height="0.68" fill="#F96D62"/>
      <rect x="113.99" y="57.22" width="1.31" height="0.68" fill="#FA6863"/>
      <rect x="113.99" y="56.53" width="1.31" height="0.68" fill="#FB6263"/>
      <rect x="113.99" y="55.85" width="1.31" height="0.68" fill="#FB5D64"/>
      <rect x="113.99" y="55.17" width="1.31" height="0.68" fill="#FC5764"/>
      <rect x="113.99" y="54.48" width="1.31" height="0.68" fill="#FD5164"/>
      <rect x="113.99" y="53.8" width="1.31" height="0.68" fill="#FD4A65"/>
      <rect x="113.99" y="53.12" width="1.31" height="0.68" fill="#FE4365"/>
      <g stroke="#FFFFFF" stroke-width="0.2" id="img-63c239ff-8">
        <path fill="none" d="M113.99,53.12 L 115.3 53.12"/>
        <path fill="none" d="M113.99,73.6 L 115.3 73.6"/>
        <path fill="none" d="M113.99,80.43 L 115.3 80.43"/>
        <path fill="none" d="M113.99,59.95 L 115.3 59.95"/>
        <path fill="none" d="M113.99,66.78 L 115.3 66.78"/>
      </g>
    </g>
    <g fill="#A1A1A1" font-size="3.88" font-family="'PT Sans','Helvetica Neue','Helvetica',sans-serif" stroke="#000000" stroke-opacity="0.000" id="img-63c239ff-9">
      <text x="113.99" y="49.12">Color</text>
    </g>
  </g>
<g clip-path="url(#img-63c239ff-10)">
  <g id="img-63c239ff-11">
    <g pointer-events="visible" opacity="1" fill="#222831" stroke="#000000" stroke-opacity="0.000" class="guide background" id="img-63c239ff-12">
      <rect x="15.59" y="10.61" width="96.39" height="97.1"/>
    </g>
    <g class="guide ygridlines xfixed" stroke-dasharray="0.5,0.5" stroke-width="0.2" stroke="#575757" id="img-63c239ff-13">
      <path fill="none" d="M15.59,105.72 L 111.99 105.72"/>
      <path fill="none" d="M15.59,82.44 L 111.99 82.44"/>
      <path fill="none" d="M15.59,59.16 L 111.99 59.16"/>
      <path fill="none" d="M15.59,35.89 L 111.99 35.89"/>
      <path fill="none" d="M15.59,12.61 L 111.99 12.61"/>
    </g>
    <g class="guide xgridlines yfixed" stroke-dasharray="0.5,0.5" stroke-width="0.2" stroke="#575757" id="img-63c239ff-14">
      <path fill="none" d="M17.59,10.61 L 17.59 107.72"/>
      <path fill="none" d="M40.69,10.61 L 40.69 107.72"/>
      <path fill="none" d="M63.79,10.61 L 63.79 107.72"/>
      <path fill="none" d="M86.89,10.61 L 86.89 107.72"/>
      <path fill="none" d="M109.99,10.61 L 109.99 107.72"/>
    </g>
    <g class="plotpanel" id="img-63c239ff-15">
      <g stroke-width="0.3" fill="#000000" fill-opacity="0.000" class="geometry color_" stroke-dasharray="none" stroke="#ECA25C" id="img-63c239ff-16">
        <path fill="none" d="M38.32,81.56 L 39.7 80.1 40.45 79.31 40.76 78.98 41.76 77.92 41.89 77.79 42.13 77.54 42.33 77.33 42.89 76.73 44.09 75.46 44.64 74.88 47.07 72.31 47.09 72.29 47.27 72.1 47.79 71.55 47.79 71.55 48.21 71.11 48.47 70.83 48.98 70.29 49.01 70.26 49.13 70.13 50.7 68.47 52.04 67.06 52.13 66.97 52.13 66.97 52.64 66.42 53.33 65.7 53.98 65.02 54.16 64.82 54.39 64.58 55.31 63.6 56.22 62.64 56.52 62.33 57 61.82 57.11 61.7 59.03 59.67 59.72 58.94 59.92 58.73 60.09 58.55 61.52 57.04 61.95 56.59 62.4 56.11 62.64 55.86 63.01 55.46 63.02 55.45 63.65 54.8 64.07 54.35 64.12 54.29 64.42 53.97 64.46 53.94 64.48 53.92 64.5 53.89 64.76 53.62 64.92 53.45 64.95 53.42 65.01 53.36 65.25 53.1 65.53 52.81 65.62 52.71 66.21 52.09 66.22 52.08 66.29 52 66.3 51.99 66.37 51.91 67.06 51.19 67.37 50.86 67.92 50.28 68.26 49.92 68.49 49.67 68.64 49.52 69.37 48.75 70.46 47.6 70.57 47.48 71.02 47 71.04 46.98 71.2 46.81 72.76 45.17 72.85 45.07 74.3 43.53 74.3 43.53 74.63 43.19 74.92 42.88 75.5 42.27 77.75 39.89 78.15 39.47 78.52 39.08 78.61 38.98 78.78 38.8 78.91 38.66 79 38.57 80.37 37.12 80.91 36.55 81.36 36.08 81.46 35.97 81.85 35.55 81.97 35.43 85.08 32.14 86 31.17 86.19 30.97 88.06 29"/>
      </g>
      <g class="geometry" id="img-63c239ff-17">
        <g stroke-width="0.3" id="img-63c239ff-18">
          <g class="color_" stroke="#7F000D" fill="#FE4365" id="img-63c239ff-19">
            <use xlink:href="#img-63c239ff-20" x="61.52" y="59.7"/>
          </g>
          <g class="color_" stroke="#7F000D" fill="#FE4365" id="img-63c239ff-21">
            <use xlink:href="#img-63c239ff-22" x="62.4" y="58.35"/>
          </g>
          <g class="color_" stroke="#7F000D" fill="#FE4365" id="img-63c239ff-23">
            <use xlink:href="#img-63c239ff-24" x="59.92" y="73.46"/>
          </g>
          <g class="color_" stroke="#000B28" fill="#005D7F" id="img-63c239ff-25">
            <use xlink:href="#img-63c239ff-26" x="66.22" y="45.9"/>
          </g>
          <g class="color_" stroke="#000B28" fill="#005D7F" id="img-63c239ff-27">
            <use xlink:href="#img-63c239ff-28" x="41.89" y="50.86"/>
          </g>
          <g class="color_" stroke="#7F000D" fill="#FE4365" id="img-63c239ff-29">
            <use xlink:href="#img-63c239ff-30" x="81.46" y="71.47"/>
          </g>
          <g class="color_" stroke="#7F000D" fill="#FE4365" id="img-63c239ff-31">
            <use xlink:href="#img-63c239ff-32" x="63.65" y="63.01"/>
          </g>
          <g class="color_" stroke="#000B28" fill="#005D7F" id="img-63c239ff-33">
            <use xlink:href="#img-63c239ff-34" x="71.2" y="37.55"/>
          </g>
          <g class="color_" stroke="#7F000D" fill="#FE4365" id="img-63c239ff-35">
            <use xlink:href="#img-63c239ff-36" x="68.64" y="81.74"/>
          </g>
          <g class="color_" stroke="#000B28" fill="#005D7F" id="img-63c239ff-37">
            <use xlink:href="#img-63c239ff-38" x="59.72" y="33.37"/>
          </g>
          <g class="color_" stroke="#7F000D" fill="#FE4365" id="img-63c239ff-39">
            <use xlink:href="#img-63c239ff-40" x="80.37" y="73.59"/>
          </g>
          <g class="color_" stroke="#7F000D" fill="#FE4365" id="img-63c239ff-41">
            <use xlink:href="#img-63c239ff-42" x="78.15" y="64.35"/>
          </g>
          <g class="color_" stroke="#7F000D" fill="#FE4365" id="img-63c239ff-43">
            <use xlink:href="#img-63c239ff-44" x="70.46" y="69.36"/>
          </g>
          <g class="color_" stroke="#7F000D" fill="#FE4365" id="img-63c239ff-45">
            <use xlink:href="#img-63c239ff-46" x="77.75" y="42.61"/>
          </g>
          <g class="color_" stroke="#7F000D" fill="#FE4365" id="img-63c239ff-47">
            <use xlink:href="#img-63c239ff-48" x="74.3" y="58.03"/>
          </g>
          <g class="color_" stroke="#7F000D" fill="#FE4365" id="img-63c239ff-49">
            <use xlink:href="#img-63c239ff-50" x="52.13" y="69.67"/>
          </g>
          <g class="color_" stroke="#7F000D" fill="#FE4365" id="img-63c239ff-51">
            <use xlink:href="#img-63c239ff-52" x="71.04" y="69.23"/>
          </g>
          <g class="color_" stroke="#7F000D" fill="#FE4365" id="img-63c239ff-53">
            <use xlink:href="#img-63c239ff-54" x="65.62" y="61.78"/>
          </g>
          <g class="color_" stroke="#7F000D" fill="#FE4365" id="img-63c239ff-55">
            <use xlink:href="#img-63c239ff-56" x="65.01" y="80.38"/>
          </g>
          <g class="color_" stroke="#000B28" fill="#005D7F" id="img-63c239ff-57">
            <use xlink:href="#img-63c239ff-58" x="67.92" y="48.92"/>
          </g>
          <g class="color_" stroke="#7F000D" fill="#FE4365" id="img-63c239ff-59">
            <use xlink:href="#img-63c239ff-60" x="47.79" y="73.09"/>
          </g>
          <g class="color_" stroke="#7F000D" fill="#FE4365" id="img-63c239ff-61">
            <use xlink:href="#img-63c239ff-62" x="74.3" y="69.2"/>
          </g>
          <g class="color_" stroke="#7F000D" fill="#FE4365" id="img-63c239ff-63">
            <use xlink:href="#img-63c239ff-64" x="64.48" y="56.44"/>
          </g>
          <g class="color_" stroke="#7F000D" fill="#FE4365" id="img-63c239ff-65">
            <use xlink:href="#img-63c239ff-66" x="64.76" y="57.45"/>
          </g>
          <g class="color_" stroke="#7F000D" fill="#FE4365" id="img-63c239ff-67">
            <use xlink:href="#img-63c239ff-68" x="88.06" y="55.89"/>
          </g>
          <g class="color_" stroke="#7F000D" fill="#FE4365" id="img-63c239ff-69">
            <use xlink:href="#img-63c239ff-70" x="78.61" y="77.87"/>
          </g>
          <g class="color_" stroke="#7F000D" fill="#FE4365" id="img-63c239ff-71">
            <use xlink:href="#img-63c239ff-72" x="64.07" y="59.85"/>
          </g>
          <g class="color_" stroke="#7F000D" fill="#FE4365" id="img-63c239ff-73">
            <use xlink:href="#img-63c239ff-74" x="67.37" y="55.66"/>
          </g>
          <g class="color_" stroke="#7F000D" fill="#FE4365" id="img-63c239ff-75">
            <use xlink:href="#img-63c239ff-76" x="81.85" y="73.76"/>
          </g>
          <g class="color_" stroke="#000B28" fill="#005D7F" id="img-63c239ff-77">
            <use xlink:href="#img-63c239ff-78" x="49.01" y="64.08"/>
          </g>
          <g class="color_" stroke="#000B28" fill="#005D7F" id="img-63c239ff-79">
            <use xlink:href="#img-63c239ff-80" x="52.13" y="41.06"/>
          </g>
          <g class="color_" stroke="#7F000D" fill="#FE4365" id="img-63c239ff-81">
            <use xlink:href="#img-63c239ff-82" x="85.08" y="63.07"/>
          </g>
          <g class="color_" stroke="#7F000D" fill="#FE4365" id="img-63c239ff-83">
            <use xlink:href="#img-63c239ff-84" x="59.03" y="67.09"/>
          </g>
          <g class="color_" stroke="#000B28" fill="#005D7F" id="img-63c239ff-85">
            <use xlink:href="#img-63c239ff-86" x="50.7" y="58.01"/>
          </g>
          <g class="color_" stroke="#000B28" fill="#005D7F" id="img-63c239ff-87">
            <use xlink:href="#img-63c239ff-88" x="39.7" y="45.37"/>
          </g>
          <g class="color_" stroke="#000B28" fill="#005D7F" id="img-63c239ff-89">
            <use xlink:href="#img-63c239ff-90" x="60.09" y="55.62"/>
          </g>
          <g class="color_" stroke="#7F000D" fill="#FE4365" id="img-63c239ff-91">
            <use xlink:href="#img-63c239ff-92" x="66.3" y="72.87"/>
          </g>
          <g class="color_" stroke="#7F000D" fill="#FE4365" id="img-63c239ff-93">
            <use xlink:href="#img-63c239ff-94" x="65.25" y="62.58"/>
          </g>
          <g class="color_" stroke="#000B28" fill="#005D7F" id="img-63c239ff-95">
            <use xlink:href="#img-63c239ff-96" x="47.09" y="53.19"/>
          </g>
          <g class="color_" stroke="#7F000D" fill="#FE4365" id="img-63c239ff-97">
            <use xlink:href="#img-63c239ff-98" x="68.26" y="52.87"/>
          </g>
          <g class="color_" stroke="#000B28" fill="#005D7F" id="img-63c239ff-99">
            <use xlink:href="#img-63c239ff-100" x="48.98" y="53.02"/>
          </g>
          <g class="color_" stroke="#000B28" fill="#005D7F" id="img-63c239ff-101">
            <use xlink:href="#img-63c239ff-102" x="40.76" y="49.1"/>
          </g>
          <g class="color_" stroke="#7F000D" fill="#FE4365" id="img-63c239ff-103">
            <use xlink:href="#img-63c239ff-104" x="69.37" y="60.68"/>
          </g>
          <g class="color_" stroke="#000B28" fill="#005D7F" id="img-63c239ff-105">
            <use xlink:href="#img-63c239ff-106" x="41.76" y="71.76"/>
          </g>
          <g class="color_" stroke="#000B28" fill="#005D7F" id="img-63c239ff-107">
            <use xlink:href="#img-63c239ff-108" x="44.64" y="51.96"/>
          </g>
          <g class="color_" stroke="#000B28" fill="#005D7F" id="img-63c239ff-109">
            <use xlink:href="#img-63c239ff-110" x="49.13" y="64.82"/>
          </g>
          <g class="color_" stroke="#000B28" fill="#005D7F" id="img-63c239ff-111">
            <use xlink:href="#img-63c239ff-112" x="40.45" y="51.92"/>
          </g>
          <g class="color_" stroke="#000B28" fill="#005D7F" id="img-63c239ff-113">
            <use xlink:href="#img-63c239ff-114" x="47.79" y="70.05"/>
          </g>
          <g class="color_" stroke="#000B28" fill="#005D7F" id="img-63c239ff-115">
            <use xlink:href="#img-63c239ff-116" x="52.64" y="63.97"/>
          </g>
          <g class="color_" stroke="#7F000D" fill="#FE4365" id="img-63c239ff-117">
            <use xlink:href="#img-63c239ff-118" x="64.5" y="57.66"/>
          </g>
          <g class="color_" stroke="#000B28" fill="#005D7F" id="img-63c239ff-119">
            <use xlink:href="#img-63c239ff-120" x="48.47" y="38.19"/>
          </g>
          <g class="color_" stroke="#7F000D" fill="#FE4365" id="img-63c239ff-121">
            <use xlink:href="#img-63c239ff-122" x="70.57" y="63.08"/>
          </g>
          <g class="color_" stroke="#7F000D" fill="#FE4365" id="img-63c239ff-123">
            <use xlink:href="#img-63c239ff-124" x="78.91" y="58.75"/>
          </g>
          <g class="color_" stroke="#7F000D" fill="#FE4365" id="img-63c239ff-125">
            <use xlink:href="#img-63c239ff-126" x="74.63" y="49.37"/>
          </g>
          <g class="color_" stroke="#7F000D" fill="#FE4365" id="img-63c239ff-127">
            <use xlink:href="#img-63c239ff-128" x="64.12" y="59.08"/>
          </g>
          <g class="color_" stroke="#000B28" fill="#005D7F" id="img-63c239ff-129">
            <use xlink:href="#img-63c239ff-130" x="47.07" y="37.8"/>
          </g>
          <g class="color_" stroke="#7F000D" fill="#FE4365" id="img-63c239ff-131">
            <use xlink:href="#img-63c239ff-132" x="78.78" y="46.81"/>
          </g>
          <g class="color_" stroke="#000B28" fill="#005D7F" id="img-63c239ff-133">
            <use xlink:href="#img-63c239ff-134" x="38.32" y="52.43"/>
          </g>
          <g class="color_" stroke="#7F000D" fill="#FE4365" id="img-63c239ff-135">
            <use xlink:href="#img-63c239ff-136" x="61.95" y="57.62"/>
          </g>
          <g class="color_" stroke="#7F000D" fill="#FE4365" id="img-63c239ff-137">
            <use xlink:href="#img-63c239ff-138" x="56.52" y="63.26"/>
          </g>
          <g class="color_" stroke="#000B28" fill="#005D7F" id="img-63c239ff-139">
            <use xlink:href="#img-63c239ff-140" x="47.27" y="51.62"/>
          </g>
          <g class="color_" stroke="#7F000D" fill="#FE4365" id="img-63c239ff-141">
            <use xlink:href="#img-63c239ff-142" x="55.31" y="75.4"/>
          </g>
          <g class="color_" stroke="#7F000D" fill="#FE4365" id="img-63c239ff-143">
            <use xlink:href="#img-63c239ff-144" x="64.92" y="56.76"/>
          </g>
          <g class="color_" stroke="#7F000D" fill="#FE4365" id="img-63c239ff-145">
            <use xlink:href="#img-63c239ff-146" x="64.42" y="64.76"/>
          </g>
          <g class="color_" stroke="#000B28" fill="#005D7F" id="img-63c239ff-147">
            <use xlink:href="#img-63c239ff-148" x="52.04" y="53.33"/>
          </g>
          <g class="color_" stroke="#7F000D" fill="#FE4365" id="img-63c239ff-149">
            <use xlink:href="#img-63c239ff-150" x="53.98" y="76.21"/>
          </g>
          <g class="color_" stroke="#000B28" fill="#005D7F" id="img-63c239ff-151">
            <use xlink:href="#img-63c239ff-152" x="66.37" y="34.8"/>
          </g>
          <g class="color_" stroke="#000B28" fill="#005D7F" id="img-63c239ff-153">
            <use xlink:href="#img-63c239ff-154" x="42.89" y="66.74"/>
          </g>
          <g class="color_" stroke="#7F000D" fill="#FE4365" id="img-63c239ff-155">
            <use xlink:href="#img-63c239ff-156" x="64.46" y="56.08"/>
          </g>
          <g class="color_" stroke="#7F000D" fill="#FE4365" id="img-63c239ff-157">
            <use xlink:href="#img-63c239ff-158" x="80.91" y="64.48"/>
          </g>
          <g class="color_" stroke="#000B28" fill="#005D7F" id="img-63c239ff-159">
            <use xlink:href="#img-63c239ff-160" x="42.33" y="50.77"/>
          </g>
          <g class="color_" stroke="#7F000D" fill="#FE4365" id="img-63c239ff-161">
            <use xlink:href="#img-63c239ff-162" x="81.36" y="42.27"/>
          </g>
          <g class="color_" stroke="#7F000D" fill="#FE4365" id="img-63c239ff-163">
            <use xlink:href="#img-63c239ff-164" x="68.49" y="60.86"/>
          </g>
          <g class="color_" stroke="#000B28" fill="#005D7F" id="img-63c239ff-165">
            <use xlink:href="#img-63c239ff-166" x="63.02" y="47.86"/>
          </g>
          <g class="color_" stroke="#000B28" fill="#005D7F" id="img-63c239ff-167">
            <use xlink:href="#img-63c239ff-168" x="74.92" y="41.84"/>
          </g>
          <g class="color_" stroke="#7F000D" fill="#FE4365" id="img-63c239ff-169">
            <use xlink:href="#img-63c239ff-170" x="67.06" y="71.13"/>
          </g>
          <g class="color_" stroke="#000B28" fill="#005D7F" id="img-63c239ff-171">
            <use xlink:href="#img-63c239ff-172" x="42.13" y="49.61"/>
          </g>
          <g class="color_" stroke="#7F000D" fill="#FE4365" id="img-63c239ff-173">
            <use xlink:href="#img-63c239ff-174" x="79" y="72.74"/>
          </g>
          <g class="color_" stroke="#7F000D" fill="#FE4365" id="img-63c239ff-175">
            <use xlink:href="#img-63c239ff-176" x="48.21" y="71.33"/>
          </g>
          <g class="color_" stroke="#7F000D" fill="#FE4365" id="img-63c239ff-177">
            <use xlink:href="#img-63c239ff-178" x="86.19" y="68.68"/>
          </g>
          <g class="color_" stroke="#7F000D" fill="#FE4365" id="img-63c239ff-179">
            <use xlink:href="#img-63c239ff-180" x="75.5" y="72.5"/>
          </g>
          <g class="color_" stroke="#000B28" fill="#005D7F" id="img-63c239ff-181">
            <use xlink:href="#img-63c239ff-182" x="44.09" y="53.91"/>
          </g>
          <g class="color_" stroke="#7F000D" fill="#FE4365" id="img-63c239ff-183">
            <use xlink:href="#img-63c239ff-184" x="62.64" y="58.88"/>
          </g>
          <g class="color_" stroke="#000B28" fill="#005D7F" id="img-63c239ff-185">
            <use xlink:href="#img-63c239ff-186" x="54.16" y="56.01"/>
          </g>
          <g class="color_" stroke="#7F000D" fill="#FE4365" id="img-63c239ff-187">
            <use xlink:href="#img-63c239ff-188" x="66.21" y="72.6"/>
          </g>
          <g class="color_" stroke="#7F000D" fill="#FE4365" id="img-63c239ff-189">
            <use xlink:href="#img-63c239ff-190" x="81.97" y="79.49"/>
          </g>
          <g class="color_" stroke="#7F000D" fill="#FE4365" id="img-63c239ff-191">
            <use xlink:href="#img-63c239ff-192" x="63.01" y="59.31"/>
          </g>
          <g class="color_" stroke="#7F000D" fill="#FE4365" id="img-63c239ff-193">
            <use xlink:href="#img-63c239ff-194" x="86" y="74.97"/>
          </g>
          <g class="color_" stroke="#7F000D" fill="#FE4365" id="img-63c239ff-195">
            <use xlink:href="#img-63c239ff-196" x="72.76" y="50.94"/>
          </g>
          <g class="color_" stroke="#000B28" fill="#005D7F" id="img-63c239ff-197">
            <use xlink:href="#img-63c239ff-198" x="57.11" y="55.32"/>
          </g>
          <g class="color_" stroke="#7F000D" fill="#FE4365" id="img-63c239ff-199">
            <use xlink:href="#img-63c239ff-200" x="64.95" y="85.87"/>
          </g>
          <g class="color_" stroke="#7F000D" fill="#FE4365" id="img-63c239ff-201">
            <use xlink:href="#img-63c239ff-202" x="78.52" y="55.96"/>
          </g>
          <g class="color_" stroke="#000B28" fill="#005D7F" id="img-63c239ff-203">
            <use xlink:href="#img-63c239ff-204" x="71.02" y="39.99"/>
          </g>
          <g class="color_" stroke="#7F000D" fill="#FE4365" id="img-63c239ff-205">
            <use xlink:href="#img-63c239ff-206" x="72.85" y="83.93"/>
          </g>
          <g class="color_" stroke="#000B28" fill="#005D7F" id="img-63c239ff-207">
            <use xlink:href="#img-63c239ff-208" x="57" y="58.72"/>
          </g>
          <g class="color_" stroke="#7F000D" fill="#FE4365" id="img-63c239ff-209">
            <use xlink:href="#img-63c239ff-210" x="53.33" y="70.64"/>
          </g>
          <g class="color_" stroke="#7F000D" fill="#FE4365" id="img-63c239ff-211">
            <use xlink:href="#img-63c239ff-212" x="66.29" y="68.39"/>
          </g>
          <g class="color_" stroke="#7F000D" fill="#FE4365" id="img-63c239ff-213">
            <use xlink:href="#img-63c239ff-214" x="65.53" y="61.03"/>
          </g>
          <g class="color_" stroke="#7F000D" fill="#FE4365" id="img-63c239ff-215">
            <use xlink:href="#img-63c239ff-216" x="56.22" y="74.93"/>
          </g>
          <g class="color_" stroke="#000B28" fill="#005D7F" id="img-63c239ff-217">
            <use xlink:href="#img-63c239ff-218" x="54.39" y="54.52"/>
          </g>
        </g>
      </g>
    </g>
  </g>
</g>
  <g class="guide ylabels" font-size="2.82" font-family="'PT Sans Caption','Helvetica Neue','Helvetica',sans-serif" fill="#A1A1A1" id="img-63c239ff-219">
    <text x="14.59" y="105.72" text-anchor="end" dy="0.35em">-2</text>
    <text x="14.59" y="82.44" text-anchor="end" dy="0.35em">-1</text>
    <text x="14.59" y="59.16" text-anchor="end" dy="0.35em">0</text>
    <text x="14.59" y="35.89" text-anchor="end" dy="0.35em">1</text>
    <text x="14.59" y="12.61" text-anchor="end" dy="0.35em">2</text>
  </g>
  <g font-size="3.88" font-family="'PT Sans','Helvetica Neue','Helvetica',sans-serif" fill="#A1A1A1" stroke="#000000" stroke-opacity="0.000" id="img-63c239ff-220">
    <text x="8.81" y="59.16" text-anchor="end" dy="0.35em">y</text>
  </g>
  <g font-size="3.88" font-family="'PT Sans','Helvetica Neue','Helvetica',sans-serif" fill="#A1A1A1" stroke="#000000" stroke-opacity="0.000" id="img-63c239ff-221">
    <text x="63.79" y="5" text-anchor="middle" dy="0.6em">formula: 0.26169656388750234 x + -0.2495264810811027 y + 0.04845927989791474 = 0</text>
  </g>
</g>
<defs>
  <clipPath id="img-63c239ff-10">
  <path d="M15.59,10.61 L 111.99 10.61 111.99 107.72 15.59 107.72" />
</clipPath>
  <g id="img-63c239ff-20">
    <circle cx="0" cy="0" r="0.9"/>
  </g>
  <g id="img-63c239ff-22">
    <circle cx="0" cy="0" r="0.9"/>
  </g>
  <g id="img-63c239ff-24">
    <circle cx="0" cy="0" r="0.9"/>
  </g>
  <g id="img-63c239ff-26">
    <circle cx="0" cy="0" r="0.9"/>
  </g>
  <g id="img-63c239ff-28">
    <circle cx="0" cy="0" r="0.9"/>
  </g>
  <g id="img-63c239ff-30">
    <circle cx="0" cy="0" r="0.9"/>
  </g>
  <g id="img-63c239ff-32">
    <circle cx="0" cy="0" r="0.9"/>
  </g>
  <g id="img-63c239ff-34">
    <circle cx="0" cy="0" r="0.9"/>
  </g>
  <g id="img-63c239ff-36">
    <circle cx="0" cy="0" r="0.9"/>
  </g>
  <g id="img-63c239ff-38">
    <circle cx="0" cy="0" r="0.9"/>
  </g>
  <g id="img-63c239ff-40">
    <circle cx="0" cy="0" r="0.9"/>
  </g>
  <g id="img-63c239ff-42">
    <circle cx="0" cy="0" r="0.9"/>
  </g>
  <g id="img-63c239ff-44">
    <circle cx="0" cy="0" r="0.9"/>
  </g>
  <g id="img-63c239ff-46">
    <circle cx="0" cy="0" r="0.9"/>
  </g>
  <g id="img-63c239ff-48">
    <circle cx="0" cy="0" r="0.9"/>
  </g>
  <g id="img-63c239ff-50">
    <circle cx="0" cy="0" r="0.9"/>
  </g>
  <g id="img-63c239ff-52">
    <circle cx="0" cy="0" r="0.9"/>
  </g>
  <g id="img-63c239ff-54">
    <circle cx="0" cy="0" r="0.9"/>
  </g>
  <g id="img-63c239ff-56">
    <circle cx="0" cy="0" r="0.9"/>
  </g>
  <g id="img-63c239ff-58">
    <circle cx="0" cy="0" r="0.9"/>
  </g>
  <g id="img-63c239ff-60">
    <circle cx="0" cy="0" r="0.9"/>
  </g>
  <g id="img-63c239ff-62">
    <circle cx="0" cy="0" r="0.9"/>
  </g>
  <g id="img-63c239ff-64">
    <circle cx="0" cy="0" r="0.9"/>
  </g>
  <g id="img-63c239ff-66">
    <circle cx="0" cy="0" r="0.9"/>
  </g>
  <g id="img-63c239ff-68">
    <circle cx="0" cy="0" r="0.9"/>
  </g>
  <g id="img-63c239ff-70">
    <circle cx="0" cy="0" r="0.9"/>
  </g>
  <g id="img-63c239ff-72">
    <circle cx="0" cy="0" r="0.9"/>
  </g>
  <g id="img-63c239ff-74">
    <circle cx="0" cy="0" r="0.9"/>
  </g>
  <g id="img-63c239ff-76">
    <circle cx="0" cy="0" r="0.9"/>
  </g>
  <g id="img-63c239ff-78">
    <circle cx="0" cy="0" r="0.9"/>
  </g>
  <g id="img-63c239ff-80">
    <circle cx="0" cy="0" r="0.9"/>
  </g>
  <g id="img-63c239ff-82">
    <circle cx="0" cy="0" r="0.9"/>
  </g>
  <g id="img-63c239ff-84">
    <circle cx="0" cy="0" r="0.9"/>
  </g>
  <g id="img-63c239ff-86">
    <circle cx="0" cy="0" r="0.9"/>
  </g>
  <g id="img-63c239ff-88">
    <circle cx="0" cy="0" r="0.9"/>
  </g>
  <g id="img-63c239ff-90">
    <circle cx="0" cy="0" r="0.9"/>
  </g>
  <g id="img-63c239ff-92">
    <circle cx="0" cy="0" r="0.9"/>
  </g>
  <g id="img-63c239ff-94">
    <circle cx="0" cy="0" r="0.9"/>
  </g>
  <g id="img-63c239ff-96">
    <circle cx="0" cy="0" r="0.9"/>
  </g>
  <g id="img-63c239ff-98">
    <circle cx="0" cy="0" r="0.9"/>
  </g>
  <g id="img-63c239ff-100">
    <circle cx="0" cy="0" r="0.9"/>
  </g>
  <g id="img-63c239ff-102">
    <circle cx="0" cy="0" r="0.9"/>
  </g>
  <g id="img-63c239ff-104">
    <circle cx="0" cy="0" r="0.9"/>
  </g>
  <g id="img-63c239ff-106">
    <circle cx="0" cy="0" r="0.9"/>
  </g>
  <g id="img-63c239ff-108">
    <circle cx="0" cy="0" r="0.9"/>
  </g>
  <g id="img-63c239ff-110">
    <circle cx="0" cy="0" r="0.9"/>
  </g>
  <g id="img-63c239ff-112">
    <circle cx="0" cy="0" r="0.9"/>
  </g>
  <g id="img-63c239ff-114">
    <circle cx="0" cy="0" r="0.9"/>
  </g>
  <g id="img-63c239ff-116">
    <circle cx="0" cy="0" r="0.9"/>
  </g>
  <g id="img-63c239ff-118">
    <circle cx="0" cy="0" r="0.9"/>
  </g>
  <g id="img-63c239ff-120">
    <circle cx="0" cy="0" r="0.9"/>
  </g>
  <g id="img-63c239ff-122">
    <circle cx="0" cy="0" r="0.9"/>
  </g>
  <g id="img-63c239ff-124">
    <circle cx="0" cy="0" r="0.9"/>
  </g>
  <g id="img-63c239ff-126">
    <circle cx="0" cy="0" r="0.9"/>
  </g>
  <g id="img-63c239ff-128">
    <circle cx="0" cy="0" r="0.9"/>
  </g>
  <g id="img-63c239ff-130">
    <circle cx="0" cy="0" r="0.9"/>
  </g>
  <g id="img-63c239ff-132">
    <circle cx="0" cy="0" r="0.9"/>
  </g>
  <g id="img-63c239ff-134">
    <circle cx="0" cy="0" r="0.9"/>
  </g>
  <g id="img-63c239ff-136">
    <circle cx="0" cy="0" r="0.9"/>
  </g>
  <g id="img-63c239ff-138">
    <circle cx="0" cy="0" r="0.9"/>
  </g>
  <g id="img-63c239ff-140">
    <circle cx="0" cy="0" r="0.9"/>
  </g>
  <g id="img-63c239ff-142">
    <circle cx="0" cy="0" r="0.9"/>
  </g>
  <g id="img-63c239ff-144">
    <circle cx="0" cy="0" r="0.9"/>
  </g>
  <g id="img-63c239ff-146">
    <circle cx="0" cy="0" r="0.9"/>
  </g>
  <g id="img-63c239ff-148">
    <circle cx="0" cy="0" r="0.9"/>
  </g>
  <g id="img-63c239ff-150">
    <circle cx="0" cy="0" r="0.9"/>
  </g>
  <g id="img-63c239ff-152">
    <circle cx="0" cy="0" r="0.9"/>
  </g>
  <g id="img-63c239ff-154">
    <circle cx="0" cy="0" r="0.9"/>
  </g>
  <g id="img-63c239ff-156">
    <circle cx="0" cy="0" r="0.9"/>
  </g>
  <g id="img-63c239ff-158">
    <circle cx="0" cy="0" r="0.9"/>
  </g>
  <g id="img-63c239ff-160">
    <circle cx="0" cy="0" r="0.9"/>
  </g>
  <g id="img-63c239ff-162">
    <circle cx="0" cy="0" r="0.9"/>
  </g>
  <g id="img-63c239ff-164">
    <circle cx="0" cy="0" r="0.9"/>
  </g>
  <g id="img-63c239ff-166">
    <circle cx="0" cy="0" r="0.9"/>
  </g>
  <g id="img-63c239ff-168">
    <circle cx="0" cy="0" r="0.9"/>
  </g>
  <g id="img-63c239ff-170">
    <circle cx="0" cy="0" r="0.9"/>
  </g>
  <g id="img-63c239ff-172">
    <circle cx="0" cy="0" r="0.9"/>
  </g>
  <g id="img-63c239ff-174">
    <circle cx="0" cy="0" r="0.9"/>
  </g>
  <g id="img-63c239ff-176">
    <circle cx="0" cy="0" r="0.9"/>
  </g>
  <g id="img-63c239ff-178">
    <circle cx="0" cy="0" r="0.9"/>
  </g>
  <g id="img-63c239ff-180">
    <circle cx="0" cy="0" r="0.9"/>
  </g>
  <g id="img-63c239ff-182">
    <circle cx="0" cy="0" r="0.9"/>
  </g>
  <g id="img-63c239ff-184">
    <circle cx="0" cy="0" r="0.9"/>
  </g>
  <g id="img-63c239ff-186">
    <circle cx="0" cy="0" r="0.9"/>
  </g>
  <g id="img-63c239ff-188">
    <circle cx="0" cy="0" r="0.9"/>
  </g>
  <g id="img-63c239ff-190">
    <circle cx="0" cy="0" r="0.9"/>
  </g>
  <g id="img-63c239ff-192">
    <circle cx="0" cy="0" r="0.9"/>
  </g>
  <g id="img-63c239ff-194">
    <circle cx="0" cy="0" r="0.9"/>
  </g>
  <g id="img-63c239ff-196">
    <circle cx="0" cy="0" r="0.9"/>
  </g>
  <g id="img-63c239ff-198">
    <circle cx="0" cy="0" r="0.9"/>
  </g>
  <g id="img-63c239ff-200">
    <circle cx="0" cy="0" r="0.9"/>
  </g>
  <g id="img-63c239ff-202">
    <circle cx="0" cy="0" r="0.9"/>
  </g>
  <g id="img-63c239ff-204">
    <circle cx="0" cy="0" r="0.9"/>
  </g>
  <g id="img-63c239ff-206">
    <circle cx="0" cy="0" r="0.9"/>
  </g>
  <g id="img-63c239ff-208">
    <circle cx="0" cy="0" r="0.9"/>
  </g>
  <g id="img-63c239ff-210">
    <circle cx="0" cy="0" r="0.9"/>
  </g>
  <g id="img-63c239ff-212">
    <circle cx="0" cy="0" r="0.9"/>
  </g>
  <g id="img-63c239ff-214">
    <circle cx="0" cy="0" r="0.9"/>
  </g>
  <g id="img-63c239ff-216">
    <circle cx="0" cy="0" r="0.9"/>
  </g>
  <g id="img-63c239ff-218">
    <circle cx="0" cy="0" r="0.9"/>
  </g>
</defs>
</svg>
